<mxfile host="app.diagrams.net" modified="2022-06-02T18:00:11.133Z" agent="5.0 (X11)" etag="i-veS63RvzK1zzI-AWtn" version="18.2.1" type="github">
  <diagram id="75WL5PLw_IwoUXddW2Ck" name="Page-1">
    <mxGraphModel dx="1863" dy="452" grid="1" gridSize="10" guides="1" tooltips="1" connect="1" arrows="1" fold="1" page="1" pageScale="1" pageWidth="827" pageHeight="1169" math="0" shadow="0">
      <root>
        <mxCell id="0" />
        <mxCell id="1" parent="0" />
        <mxCell id="QpZziWP00qO4hB4BiGsR-5" style="edgeStyle=orthogonalEdgeStyle;rounded=0;orthogonalLoop=1;jettySize=auto;html=1;exitX=0.5;exitY=1;exitDx=0;exitDy=0;exitPerimeter=0;" edge="1" parent="1" source="QpZziWP00qO4hB4BiGsR-1" target="QpZziWP00qO4hB4BiGsR-4">
          <mxGeometry relative="1" as="geometry" />
        </mxCell>
        <mxCell id="QpZziWP00qO4hB4BiGsR-1" value="main" style="strokeWidth=2;html=1;shape=mxgraph.flowchart.start_1;whiteSpace=wrap;fillColor=#ae8781;" vertex="1" parent="1">
          <mxGeometry x="364" y="150" width="100" height="50" as="geometry" />
        </mxCell>
        <mxCell id="QpZziWP00qO4hB4BiGsR-3" style="edgeStyle=orthogonalEdgeStyle;rounded=0;orthogonalLoop=1;jettySize=auto;html=1;exitX=0;exitY=0.5;exitDx=0;exitDy=0;entryX=0.5;entryY=0;entryDx=0;entryDy=0;entryPerimeter=0;" edge="1" parent="1" source="QpZziWP00qO4hB4BiGsR-2" target="QpZziWP00qO4hB4BiGsR-1">
          <mxGeometry relative="1" as="geometry" />
        </mxCell>
        <mxCell id="QpZziWP00qO4hB4BiGsR-2" value="&lt;div&gt;num_of_philo = arg[1]&lt;/div&gt;&lt;div align=&quot;left&quot;&gt;time_die = arg[2]&lt;/div&gt;&lt;div align=&quot;left&quot;&gt;time_eat = argv[3]&lt;/div&gt;&lt;div align=&quot;left&quot;&gt;time_sleep = argv[4]&lt;/div&gt;&lt;div align=&quot;left&quot;&gt;time_think = arg[5]&lt;br&gt;&lt;/div&gt;" style="shape=parallelogram;html=1;strokeWidth=2;perimeter=parallelogramPerimeter;whiteSpace=wrap;rounded=1;arcSize=12;size=0.23;fillColor=#d6cec0;" vertex="1" parent="1">
          <mxGeometry x="540" y="40" width="260" height="100" as="geometry" />
        </mxCell>
        <mxCell id="QpZziWP00qO4hB4BiGsR-18" style="edgeStyle=orthogonalEdgeStyle;rounded=0;orthogonalLoop=1;jettySize=auto;html=1;exitX=0;exitY=0.5;exitDx=0;exitDy=0;entryX=1;entryY=0.5;entryDx=0;entryDy=0;" edge="1" parent="1" source="QpZziWP00qO4hB4BiGsR-4" target="QpZziWP00qO4hB4BiGsR-8">
          <mxGeometry relative="1" as="geometry" />
        </mxCell>
        <mxCell id="QpZziWP00qO4hB4BiGsR-4" value="init_process" style="rounded=1;whiteSpace=wrap;html=1;absoluteArcSize=1;arcSize=14;strokeWidth=2;fillColor=#8e8a92;" vertex="1" parent="1">
          <mxGeometry x="364" y="250" width="100" height="50" as="geometry" />
        </mxCell>
        <mxCell id="QpZziWP00qO4hB4BiGsR-6" value="&lt;div&gt;Verify arguments are numbers;&lt;/div&gt;&lt;div&gt;Verify arguments are numbers greater than zero&lt;br&gt;&lt;/div&gt;" style="strokeWidth=2;html=1;shape=mxgraph.flowchart.annotation_2;align=left;labelPosition=right;pointerEvents=1;" vertex="1" parent="1">
          <mxGeometry x="180" y="657.5" width="50" height="45" as="geometry" />
        </mxCell>
        <mxCell id="QpZziWP00qO4hB4BiGsR-7" value="init_process" style="strokeWidth=2;html=1;shape=mxgraph.flowchart.start_1;whiteSpace=wrap;fillColor=#ae8781;" vertex="1" parent="1">
          <mxGeometry x="40" y="570" width="100" height="50" as="geometry" />
        </mxCell>
        <mxCell id="QpZziWP00qO4hB4BiGsR-19" style="edgeStyle=orthogonalEdgeStyle;rounded=0;orthogonalLoop=1;jettySize=auto;html=1;exitX=0;exitY=0.5;exitDx=0;exitDy=0;entryX=1;entryY=0.5;entryDx=0;entryDy=0;" edge="1" parent="1" source="QpZziWP00qO4hB4BiGsR-8" target="QpZziWP00qO4hB4BiGsR-10">
          <mxGeometry relative="1" as="geometry" />
        </mxCell>
        <mxCell id="QpZziWP00qO4hB4BiGsR-8" value="chk_args" style="rounded=1;whiteSpace=wrap;html=1;absoluteArcSize=1;arcSize=14;strokeWidth=2;fillColor=#8e8a92;" vertex="1" parent="1">
          <mxGeometry x="180" y="255" width="100" height="40" as="geometry" />
        </mxCell>
        <mxCell id="QpZziWP00qO4hB4BiGsR-20" style="edgeStyle=orthogonalEdgeStyle;rounded=0;orthogonalLoop=1;jettySize=auto;html=1;exitX=0;exitY=0.5;exitDx=0;exitDy=0;entryX=1;entryY=0.5;entryDx=0;entryDy=0;" edge="1" parent="1" source="QpZziWP00qO4hB4BiGsR-10" target="QpZziWP00qO4hB4BiGsR-11">
          <mxGeometry relative="1" as="geometry" />
        </mxCell>
        <mxCell id="QpZziWP00qO4hB4BiGsR-10" value="init_table" style="rounded=1;whiteSpace=wrap;html=1;absoluteArcSize=1;arcSize=14;strokeWidth=2;fillColor=#8e8a92;" vertex="1" parent="1">
          <mxGeometry x="60" y="255" width="100" height="40" as="geometry" />
        </mxCell>
        <mxCell id="QpZziWP00qO4hB4BiGsR-24" style="edgeStyle=orthogonalEdgeStyle;rounded=0;orthogonalLoop=1;jettySize=auto;html=1;exitX=0;exitY=0.5;exitDx=0;exitDy=0;entryX=1;entryY=0.5;entryDx=0;entryDy=0;" edge="1" parent="1" source="QpZziWP00qO4hB4BiGsR-11" target="QpZziWP00qO4hB4BiGsR-23">
          <mxGeometry relative="1" as="geometry" />
        </mxCell>
        <mxCell id="QpZziWP00qO4hB4BiGsR-11" value="init_table_seats" style="rounded=1;whiteSpace=wrap;html=1;absoluteArcSize=1;arcSize=14;strokeWidth=2;fillColor=#8e8a92;" vertex="1" parent="1">
          <mxGeometry x="-70" y="255" width="100" height="40" as="geometry" />
        </mxCell>
        <mxCell id="QpZziWP00qO4hB4BiGsR-17" value="nÃ£o" style="edgeStyle=orthogonalEdgeStyle;rounded=0;orthogonalLoop=1;jettySize=auto;html=1;exitX=0.5;exitY=0;exitDx=0;exitDy=0;entryX=1;entryY=0.5;entryDx=0;entryDy=0;entryPerimeter=0;" edge="1" parent="1" source="QpZziWP00qO4hB4BiGsR-8" target="QpZziWP00qO4hB4BiGsR-16">
          <mxGeometry relative="1" as="geometry" />
        </mxCell>
        <mxCell id="QpZziWP00qO4hB4BiGsR-22" style="edgeStyle=orthogonalEdgeStyle;rounded=0;orthogonalLoop=1;jettySize=auto;html=1;exitX=0;exitY=0.5;exitDx=0;exitDy=0;exitPerimeter=0;entryX=1;entryY=0.5;entryDx=0;entryDy=0;entryPerimeter=0;" edge="1" parent="1" source="QpZziWP00qO4hB4BiGsR-16" target="QpZziWP00qO4hB4BiGsR-21">
          <mxGeometry relative="1" as="geometry" />
        </mxCell>
        <mxCell id="QpZziWP00qO4hB4BiGsR-16" value="invalid arguments" style="strokeWidth=2;html=1;shape=mxgraph.flowchart.display;whiteSpace=wrap;fillColor=#d6cec0;" vertex="1" parent="1">
          <mxGeometry x="70" y="140" width="120" height="60" as="geometry" />
        </mxCell>
        <mxCell id="QpZziWP00qO4hB4BiGsR-21" value="Terminate" style="strokeWidth=2;html=1;shape=mxgraph.flowchart.terminator;whiteSpace=wrap;fillColor=#AE8781;" vertex="1" parent="1">
          <mxGeometry x="-70" y="140" width="100" height="60" as="geometry" />
        </mxCell>
        <mxCell id="QpZziWP00qO4hB4BiGsR-26" style="edgeStyle=orthogonalEdgeStyle;rounded=0;orthogonalLoop=1;jettySize=auto;html=1;exitX=0.5;exitY=1;exitDx=0;exitDy=0;entryX=0;entryY=0.5;entryDx=0;entryDy=0;" edge="1" parent="1" source="QpZziWP00qO4hB4BiGsR-23" target="QpZziWP00qO4hB4BiGsR-25">
          <mxGeometry relative="1" as="geometry" />
        </mxCell>
        <mxCell id="QpZziWP00qO4hB4BiGsR-23" value="init_table_forks" style="rounded=1;whiteSpace=wrap;html=1;absoluteArcSize=1;arcSize=14;strokeWidth=2;fillColor=#8e8a92;" vertex="1" parent="1">
          <mxGeometry x="-210" y="255" width="100" height="40" as="geometry" />
        </mxCell>
        <mxCell id="QpZziWP00qO4hB4BiGsR-25" value="setup_table" style="rounded=1;whiteSpace=wrap;html=1;absoluteArcSize=1;arcSize=14;strokeWidth=2;fillColor=#8E8A92;" vertex="1" parent="1">
          <mxGeometry x="364" y="330" width="100" height="50" as="geometry" />
        </mxCell>
      </root>
    </mxGraphModel>
  </diagram>
</mxfile>
